<svg width="324" height="9" viewBox="0 0 324 9" fill="none" xmlns="http://www.w3.org/2000/svg">
<path d="M322.182 1.84833C320.62 0.286234 318.087 0.286234 316.525 1.84833C314.963 3.41043 314.963 5.94309 316.525 7.50518C318.087 9.06728 320.62 9.06728 322.182 7.50518C323.744 5.94309 323.744 3.41043 322.182 1.84833ZM6.82844 1.84833C5.26635 0.286235 2.73368 0.286235 1.17159 1.84833C-0.390507 3.41043 -0.390507 5.94309 1.17159 7.50518C2.73368 9.06728 5.26635 9.06728 6.82844 7.50518C8.39054 5.94309 8.39054 3.41043 6.82844 1.84833ZM319.354 3.92676L4.00002 3.92675V5.42676L319.354 5.42676V3.92676Z" fill="#348479"/>
</svg>
